<?xml version="1.0" encoding="UTF-8"?>
<!DOCTYPE svg PUBLIC "-//W3C//DTD SVG 1.1//EN" "http://www.w3.org/Graphics/SVG/1.1/DTD/svg11.dtd">
<svg xmlns="http://www.w3.org/2000/svg" version="1.1" width="500px" height="500px" style="shape-rendering:geometricPrecision; text-rendering:geometricPrecision; image-rendering:optimizeQuality; fill-rule:evenodd; clip-rule:evenodd" xmlns:xlink="http://www.w3.org/1999/xlink">
<g><path style="opacity:1" fill="#fefefe" d="M -0.5,-0.5 C 166.167,-0.5 332.833,-0.5 499.5,-0.5C 499.5,166.167 499.5,332.833 499.5,499.5C 332.833,499.5 166.167,499.5 -0.5,499.5C -0.5,332.833 -0.5,166.167 -0.5,-0.5 Z"/></g>
<g><path style="opacity:1" fill="#3c3a40" d="M 278.5,202.5 C 276.833,201.5 275.5,200.167 274.5,198.5C 272.243,197.438 271.077,195.772 271,193.5C 278.015,186.652 284.848,179.652 291.5,172.5C 285.682,166.181 279.682,160.014 273.5,154C 272.552,153.517 271.552,153.351 270.5,153.5C 271.002,151.915 272.002,151.415 273.5,152C 279.667,158.167 285.833,164.333 292,170.5C 292.72,176.965 292.053,183.298 290,189.5C 285.564,193.428 281.731,197.761 278.5,202.5 Z"/></g>
<g><path style="opacity:1" fill="#322647" d="M 258.5,165.5 C 255.854,168.812 252.854,171.812 249.5,174.5C 242.167,167.5 234.833,160.5 227.5,153.5C 220.421,159.576 214.087,166.243 208.5,173.5C 207.662,173.158 207.328,172.492 207.5,171.5C 213.812,164.521 220.479,157.854 227.5,151.5C 234.833,158.5 242.167,165.5 249.5,172.5C 252.252,169.737 255.252,167.403 258.5,165.5 Z"/></g>
<g><path style="opacity:1" fill="#fcfcfc" d="M 274.5,198.5 C 273.634,196.856 273.134,195.189 273,193.5C 279,187.5 285,181.5 291,175.5C 290.484,179.768 289.817,184.101 289,188.5C 285.5,192 282,195.5 278.5,199C 277.181,199.195 275.847,199.028 274.5,198.5 Z"/></g>
<g><path style="opacity:1" fill="#f5f5f5" d="M 248.5,218.5 C 247.51,222.772 246.844,227.106 246.5,231.5C 239.535,237.964 232.702,244.631 226,251.5C 225.601,251.272 225.435,250.938 225.5,250.5C 226.074,245.714 227.074,241.048 228.5,236.5C 235.445,230.892 242.112,224.892 248.5,218.5 Z"/></g>
<g><path style="opacity:1" fill="#f2f2f2" d="M 288.5,234.5 C 283.167,239.167 278.167,244.167 273.5,249.5C 271.682,251.078 270.682,250.578 270.5,248C 271.409,244.534 272.076,241.034 272.5,237.5C 278.798,231.703 284.965,225.703 291,219.5C 290.391,224.486 289.558,229.486 288.5,234.5 Z"/></g>
<g><path style="opacity:1" fill="#39353f" d="M 278.5,202.5 C 283.406,205.898 287.906,209.898 292,214.5C 292.775,221.39 291.941,228.057 289.5,234.5C 289.167,234.5 288.833,234.5 288.5,234.5C 289.558,229.486 290.391,224.486 291,219.5C 284.965,225.703 278.798,231.703 272.5,237.5C 272.5,237.167 272.5,236.833 272.5,236.5C 278.812,229.854 285.145,223.187 291.5,216.5C 287.145,211.813 282.812,207.146 278.5,202.5 Z"/></g>
<g><path style="opacity:1" fill="#050506" d="M 207.5,171.5 C 207.328,172.492 207.662,173.158 208.5,173.5C 215.713,180.23 222.713,187.23 229.5,194.5C 222.348,202.152 215.015,209.652 207.5,217C 213.702,223.369 220.035,229.536 226.5,235.5C 226.842,236.338 227.508,236.672 228.5,236.5C 227.074,241.048 226.074,245.714 225.5,250.5C 224.375,251.348 224.375,252.348 225.5,253.5C 225.103,254.525 224.437,254.692 223.5,254C 217,247.5 210.5,241 204,234.5C 204.004,228.464 204.671,222.464 206,216.5C 210.016,212.652 213.849,208.652 217.5,204.5C 213.182,199.681 208.682,195.015 204,190.5C 203.375,184.368 204.041,178.368 206,172.5C 206.383,171.944 206.883,171.611 207.5,171.5 Z"/></g>
<g><path style="opacity:1" fill="#8a52fa" d="M 258.5,165.5 C 260.833,162.5 263.5,159.833 266.5,157.5C 268.833,157.167 270.167,155.833 270.5,153.5C 271.552,153.351 272.552,153.517 273.5,154C 279.682,160.014 285.682,166.181 291.5,172.5C 284.848,179.652 278.015,186.652 271,193.5C 271.077,195.772 272.243,197.438 274.5,198.5C 275.5,200.167 276.833,201.5 278.5,202.5C 282.812,207.146 287.145,211.813 291.5,216.5C 285.145,223.187 278.812,229.854 272.5,236.5C 264.868,229.369 257.368,222.036 250,214.5C 248.955,215.373 248.122,216.373 247.5,217.5C 241.369,223.13 235.369,228.964 229.5,235C 228.552,235.483 227.552,235.649 226.5,235.5C 220.035,229.536 213.702,223.369 207.5,217C 215.015,209.652 222.348,202.152 229.5,194.5C 222.713,187.23 215.713,180.23 208.5,173.5C 214.087,166.243 220.421,159.576 227.5,153.5C 234.833,160.5 242.167,167.5 249.5,174.5C 252.854,171.812 255.854,168.812 258.5,165.5 Z"/></g>
<g><path style="opacity:1" fill="#ae89f6" d="M 254.5,201.5 C 255.75,201.577 256.583,202.244 257,203.5C 258.011,202.663 259.178,202.33 260.5,202.5C 261.266,208.421 259.766,209.088 256,204.5C 253.602,207.054 251.269,207.054 249,204.5C 246.894,206.291 244.394,206.958 241.5,206.5C 241.408,202.929 243.074,201.762 246.5,203C 245.549,203.718 245.383,204.551 246,205.5C 247.191,203.153 249.024,202.32 251.5,203C 250.289,203.893 250.289,204.726 251.5,205.5C 252.389,203.993 253.389,202.66 254.5,201.5 Z"/></g>
<g><path style="opacity:1" fill="#b18cf9" d="M 238.5,196.5 C 242.491,196.648 243.324,198.314 241,201.5C 240.716,199.114 239.716,198.448 238,199.5C 236.798,201.677 236.298,204.011 236.5,206.5C 237.873,206.343 239.207,206.51 240.5,207C 237.443,207.981 235.443,206.981 234.5,204C 235.457,201.251 236.79,198.751 238.5,196.5 Z"/></g>
<g><path style="opacity:1" fill="#452c77" d="M 270.5,153.5 C 270.167,155.833 268.833,157.167 266.5,157.5C 267.5,155.833 268.833,154.5 270.5,153.5 Z"/></g>
<g><path style="opacity:1" fill="#67656a" d="M 247.5,217.5 C 248.167,217.5 248.5,217.833 248.5,218.5C 242.112,224.892 235.445,230.892 228.5,236.5C 227.508,236.672 226.842,236.338 226.5,235.5C 227.552,235.649 228.552,235.483 229.5,235C 235.369,228.964 241.369,223.13 247.5,217.5 Z"/></g>
<g><path style="opacity:1" fill="#0d0c0e" d="M 272.5,236.5 C 272.5,236.833 272.5,237.167 272.5,237.5C 272.076,241.034 271.409,244.534 270.5,248C 270.682,250.578 271.682,251.078 273.5,249.5C 272.525,251.193 271.192,252.693 269.5,254C 268.833,254.667 268.167,254.667 267.5,254C 260.631,247.298 253.964,240.465 247.5,233.5C 247.167,232.833 246.833,232.167 246.5,231.5C 246.844,227.106 247.51,222.772 248.5,218.5C 248.5,217.833 248.167,217.5 247.5,217.5C 248.122,216.373 248.955,215.373 250,214.5C 257.368,222.036 264.868,229.369 272.5,236.5 Z"/></g>
<g><path style="opacity:1" fill="#484848" d="M 246.5,231.5 C 246.833,232.167 247.167,232.833 247.5,233.5C 239.888,239.775 232.554,246.442 225.5,253.5C 224.375,252.348 224.375,251.348 225.5,250.5C 225.435,250.938 225.601,251.272 226,251.5C 232.702,244.631 239.535,237.964 246.5,231.5 Z"/></g>
<g><path style="opacity:1" fill="#737373" d="M 288.5,234.5 C 288.833,234.5 289.167,234.5 289.5,234.5C 284.776,240.227 279.442,245.227 273.5,249.5C 278.167,244.167 283.167,239.167 288.5,234.5 Z"/></g>
<g><path style="opacity:1" fill="#080808" d="M 176.5,289.5 C 180.5,289.5 184.5,289.5 188.5,289.5C 188.5,294.833 188.5,300.167 188.5,305.5C 185.856,305.84 183.523,305.173 181.5,303.5C 167.6,309.414 160.934,304.914 161.5,290C 161.667,286.167 161.833,282.333 162,278.5C 163.167,277.333 164.333,276.167 165.5,275C 171.833,274.333 178.167,274.333 184.5,275C 187.962,277.239 189.295,280.406 188.5,284.5C 186.167,284.5 183.833,284.5 181.5,284.5C 181.67,283.178 181.337,282.011 180.5,281C 176.909,280.211 173.409,280.378 170,281.5C 169.333,287.167 169.333,292.833 170,298.5C 174.713,300.524 178.546,299.524 181.5,295.5C 179.955,294.548 178.288,294.215 176.5,294.5C 176.5,292.833 176.5,291.167 176.5,289.5 Z"/></g>
<g><path style="opacity:1" fill="#0d0d0d" d="M 207.5,274.5 C 212.099,274.2 216.599,274.533 221,275.5C 223.936,285.474 226.769,295.474 229.5,305.5C 226.753,305.813 224.086,305.48 221.5,304.5C 220.691,302.929 220.357,301.262 220.5,299.5C 216.445,299.176 212.445,299.509 208.5,300.5C 207.691,302.071 207.357,303.738 207.5,305.5C 204.428,305.817 201.428,305.484 198.5,304.5C 201.51,294.472 204.51,284.472 207.5,274.5 Z"/></g>
<g><path style="opacity:1" fill="#0e0e0e" d="M 261.5,305.5 C 261.666,300.156 261.499,294.823 261,289.5C 260.283,290.044 259.783,290.711 259.5,291.5C 257.846,295.479 256.179,299.479 254.5,303.5C 253.311,304.429 251.978,304.762 250.5,304.5C 248.971,299.75 247.137,295.084 245,290.5C 244.501,295.489 244.334,300.489 244.5,305.5C 241.833,305.5 239.167,305.5 236.5,305.5C 236.5,295.167 236.5,284.833 236.5,274.5C 239.448,274.223 242.281,274.556 245,275.5C 247.41,281.318 250.077,286.985 253,292.5C 255.5,286.833 258,281.167 260.5,275.5C 263.086,274.52 265.753,274.187 268.5,274.5C 268.5,284.833 268.5,295.167 268.5,305.5C 266.167,305.5 263.833,305.5 261.5,305.5 Z"/></g>
<g><path style="opacity:1" fill="#050505" d="M 278.5,274.5 C 286.5,274.5 294.5,274.5 302.5,274.5C 302.5,276.5 302.5,278.5 302.5,280.5C 297.167,280.5 291.833,280.5 286.5,280.5C 286.5,282.5 286.5,284.5 286.5,286.5C 291.167,286.5 295.833,286.5 300.5,286.5C 300.5,288.5 300.5,290.5 300.5,292.5C 295.833,292.5 291.167,292.5 286.5,292.5C 286.5,294.833 286.5,297.167 286.5,299.5C 291.833,299.5 297.167,299.5 302.5,299.5C 302.5,301.5 302.5,303.5 302.5,305.5C 294.5,305.5 286.5,305.5 278.5,305.5C 278.5,295.167 278.5,284.833 278.5,274.5 Z"/></g>
<g><path style="opacity:1" fill="#060606" d="M 312.5,305.5 C 312.5,303.5 312.5,301.5 312.5,299.5C 318.026,299.821 323.36,299.488 328.5,298.5C 329.807,296.777 329.807,294.943 328.5,293C 323.833,292.667 319.167,292.333 314.5,292C 310.633,288.34 309.466,283.84 311,278.5C 312.167,277.333 313.333,276.167 314.5,275C 321.492,274.5 328.492,274.334 335.5,274.5C 335.5,276.5 335.5,278.5 335.5,280.5C 330.156,280.334 324.823,280.501 319.5,281C 318.167,282.667 318.167,284.333 319.5,286C 324.167,286.333 328.833,286.667 333.5,287C 334.667,288.167 335.833,289.333 337,290.5C 337.667,294.167 337.667,297.833 337,301.5C 335.833,302.667 334.667,303.833 333.5,305C 326.508,305.5 319.508,305.666 312.5,305.5 Z"/></g>
<g><path style="opacity:1" fill="#e6e6e6" d="M 212.5,280.5 C 213.5,280.5 214.5,280.5 215.5,280.5C 216.167,284.833 216.833,289.167 217.5,293.5C 215.167,293.5 212.833,293.5 210.5,293.5C 211.007,289.14 211.673,284.807 212.5,280.5 Z"/></g>
<g><path style="opacity:1" fill="#5c5c5c" d="M 176.5,289.5 C 180.634,288.515 184.968,288.182 189.5,288.5C 189.822,294.358 189.489,300.025 188.5,305.5C 188.5,300.167 188.5,294.833 188.5,289.5C 184.5,289.5 180.5,289.5 176.5,289.5 Z"/></g>
<g><path style="opacity:1" fill="#919191" d="M 261.5,305.5 C 260.833,300.833 260.167,296.167 259.5,291.5C 259.783,290.711 260.283,290.044 261,289.5C 261.499,294.823 261.666,300.156 261.5,305.5 Z"/></g>
<g><path style="opacity:1" fill="#9b9b9b" d="M 328.5,298.5 C 323.36,299.488 318.026,299.821 312.5,299.5C 312.5,301.5 312.5,303.5 312.5,305.5C 311.532,303.393 311.198,301.059 311.5,298.5C 317.167,298.5 322.833,298.5 328.5,298.5 Z"/></g>
<g><path style="opacity:1" fill="#0d0d0d" d="M 217.5,323.5 C 221.167,323.5 224.833,323.5 228.5,323.5C 228.5,324.5 228.5,325.5 228.5,326.5C 225.5,326.5 222.5,326.5 219.5,326.5C 219.5,327.5 219.5,328.5 219.5,329.5C 227,328.166 229.833,331.166 228,338.5C 223.934,339.464 219.767,339.797 215.5,339.5C 215.5,338.5 215.5,337.5 215.5,336.5C 218.518,336.665 221.518,336.498 224.5,336C 225.833,335 225.833,334 224.5,333C 215.592,334.283 213.258,331.116 217.5,323.5 Z"/></g>
<g><path style="opacity:1" fill="#0c0c0c" d="M 233.5,323.5 C 234.833,323.5 236.167,323.5 237.5,323.5C 237.5,325.5 237.5,327.5 237.5,329.5C 239.5,329.5 241.5,329.5 243.5,329.5C 243.5,327.5 243.5,325.5 243.5,323.5C 244.833,323.5 246.167,323.5 247.5,323.5C 247.5,328.833 247.5,334.167 247.5,339.5C 246.167,339.5 244.833,339.5 243.5,339.5C 243.5,337.167 243.5,334.833 243.5,332.5C 241.5,332.5 239.5,332.5 237.5,332.5C 237.5,334.833 237.5,337.167 237.5,339.5C 236.167,339.5 234.833,339.5 233.5,339.5C 233.5,334.167 233.5,328.833 233.5,323.5 Z"/></g>
<g><path style="opacity:1" fill="#0d0d0d" d="M 253.5,323.5 C 265.511,321.014 269.677,325.681 266,337.5C 265.5,338 265,338.5 264.5,339C 261.167,339.667 257.833,339.667 254.5,339C 254,338.5 253.5,338 253,337.5C 252.227,332.748 252.393,328.081 253.5,323.5 Z"/></g>
<g><path style="opacity:1" fill="#050505" d="M 271.5,323.5 C 275.182,323.335 278.848,323.501 282.5,324C 286.82,331.835 284.487,335.335 275.5,334.5C 275.5,336.167 275.5,337.833 275.5,339.5C 274.167,339.5 272.833,339.5 271.5,339.5C 271.5,334.167 271.5,328.833 271.5,323.5 Z"/></g>
<g><path style="opacity:1" fill="#f2f2f2" d="M 256.5,326.5 C 258.5,326.5 260.5,326.5 262.5,326.5C 262.5,329.833 262.5,333.167 262.5,336.5C 260.5,336.5 258.5,336.5 256.5,336.5C 256.5,333.167 256.5,329.833 256.5,326.5 Z"/></g>
<g><path style="opacity:1" fill="#f3f3f3" d="M 275.5,326.5 C 277.167,326.5 278.833,326.5 280.5,326.5C 280.5,328.167 280.5,329.833 280.5,331.5C 278.833,331.5 277.167,331.5 275.5,331.5C 275.5,329.833 275.5,328.167 275.5,326.5 Z"/></g>
</svg>
